<svg width="28" height="28" viewBox="0 0 28 28" fill="none" xmlns="http://www.w3.org/2000/svg">
<path fill-rule="evenodd" clip-rule="evenodd" d="M25.3438 9.80249V17.7754C25.3438 18.1094 25.0488 18.4053 24.7188 18.4053L24.582 18.3867C24.4688 18.3584 24.3535 18.2988 24.2754 18.2197C23.7227 17.6279 23.0605 17.1465 22.2871 16.8125C21.4395 16.4424 20.5566 16.2578 19.6348 16.2578C17.0938 16.2578 14.7363 17.7754 13.7051 20.1084C13.0801 21.5899 13.0059 23.2559 13.4844 24.7744C13.4844 24.8038 13.4905 24.8385 13.4973 24.8772L13.5 24.8926L13.5017 24.9022C13.511 24.9545 13.5215 25.0123 13.5215 25.0703V25.1817C13.5215 25.7363 13.0801 26.2178 12.4902 26.2178H4.27734C3.87305 26.2178 3.4668 26.1445 3.0625 25.9961C2.80469 25.9219 2.58398 25.8106 2.40039 25.6631L2.32031 25.5986L2.30566 25.5871C2.16357 25.474 2.04272 25.3777 1.91992 25.2559C1.33203 24.6631 1 23.8486 1 22.9971V7.59278C1 5.62989 2.58398 4.03809 4.53516 4.03809H14.1445C11.9387 5.23121 9.09473 7.31604 7.15039 10.7766L7.07666 10.8877C7.03979 10.9617 7.00293 11.0358 6.92944 11.1468C6.92065 11.1643 6.91211 11.1838 6.90283 11.2045C6.87305 11.2712 6.83838 11.3495 6.78198 11.406L6.70825 11.5171C6.68994 11.5728 6.66211 11.6284 6.63452 11.6842C6.60693 11.7396 6.57935 11.795 6.56104 11.8505L6.52417 11.8875C5.60352 13.85 5.05103 16.0717 4.86694 18.4415V18.4785C4.86694 18.5525 4.85767 18.6359 4.84863 18.7193C4.83936 18.8025 4.83008 18.8858 4.83008 18.9599V19.0709V19.5153V19.6635V20.0707V20.2559V20.6632V20.8483V21.2556V21.4408C4.83008 21.5335 4.83936 21.6353 4.84863 21.7371C4.85767 21.8389 4.86694 21.9407 4.86694 22.0332C4.94067 23.033 5.75073 23.8106 6.74512 23.8106C7.55542 23.8106 8.25513 23.3292 8.51294 22.5516C8.51294 22.5332 8.52222 22.5054 8.53125 22.4776C8.54053 22.4498 8.5498 22.4221 8.5498 22.4036L8.6604 21.9592L8.91821 21.1076C10.1335 17.5158 12.4167 12.9613 16.7258 11.6653L16.7627 12.5909C16.7996 13.5907 17.6465 14.4054 18.6409 14.4054C19.0461 14.4054 19.4512 14.2572 19.7827 14.035L25.3438 9.80249Z" fill="white"/>
<path d="M19.6613 27.2794C22.1742 27.2794 24.2113 25.2423 24.2113 22.7294C24.2113 20.2165 22.1742 18.1794 19.6613 18.1794C17.1484 18.1794 15.1113 20.2165 15.1113 22.7294C15.1113 25.2423 17.1484 27.2794 19.6613 27.2794Z" fill="white"/>
<path d="M6.19216 21.9591C5.34509 9.14729 14.4418 5.03713 17.2777 4.07439C17.5355 4.00033 17.6828 3.74113 17.6828 3.48194L17.6091 1.63051C17.5723 1.14914 18.0879 0.852915 18.493 1.07509L26.8164 5.96284C27.1847 6.18501 27.2215 6.70341 26.89 6.96261L19.0086 12.9612C18.6403 13.2574 18.0879 12.9982 18.0511 12.5169L17.9774 10.7395C17.9774 10.3692 17.6091 10.11 17.2777 10.1841C11.1272 11.369 8.43873 17.923 7.33386 22.0702C7.18654 22.7367 6.22899 22.6627 6.19216 21.9591Z" fill="white"/>
</svg>
