<svg id="Layer_1" data-name="Layer 1" xmlns="http://www.w3.org/2000/svg" viewBox="0 0 24 24"><defs><style>.cls-2{fill:#7accee}</style></defs><path d="M11.74 10l1.12 12.6 5 1.4 5-1.4L24 10zm9.69 5.7v.42L21 20.19v.26l-3.14.87-3.14-.88-.21-2.44h1.54l.11 1.23 1.7.47 1.71-.47.18-2h-5.31l-.14-1.53h5.59l.11-1.58h-5.84L14 12.58h7.69z" fill="#3965bd"/><path class="cls-2" d="M19.75 17.25h-1.86l-.01 2.46 1.7-.46.17-2z"/><path class="cls-2" d="M17.92 10l-.01 2.58h3.8l-.28 3.12-.04.42-.35 4.07-.03.26-3.13.87-.02 2.68 5.02-1.4L24 10h-6.08z"/><path class="cls-2" d="M20.03 14.12H17.9v1.58h1.99l.14-1.58z"/><path d="M11.51 18.75H3.2V7.5h17.6V9H23V7.5a2.23 2.23 0 0 0-2.2-2.25H12L9.8 3H3.2A2.23 2.23 0 0 0 1 5.25v13.5A2.23 2.23 0 0 0 3.2 21h8.51z" fill="#FF4081"/></svg>