<svg xmlns="http://www.w3.org/2000/svg" width="32" height="32"><g fill="none" fill-rule="evenodd"><path fill="#78909C" d="M23.845 5.581c0 .271-.045.542-.18.768-.136.226-.362.407-.588.542-.226.136-.497.181-.768.136a1.485 1.485 0 0 1-.723-.316 1.174 1.174 0 0 1-.406-.723 1.66 1.66 0 0 1 .045-.813c.09-.271.27-.497.497-.633.226-.18.497-.27.768-.27.18 0 .361 0 .542.09.18.045.316.135.452.27.135.136.225.272.316.407.09.136.045.361.045.542z"/><path fill="#EE9D5C" d="M15.894 21.348c-3.614 0-6.822-1.31-8.448-3.208a9.017 9.017 0 0 0 3.298 4.247 9.048 9.048 0 0 0 5.15 1.626 8.823 8.823 0 0 0 5.15-1.626 9.017 9.017 0 0 0 3.298-4.247c-1.626 1.898-4.789 3.208-8.448 3.208zm0-12.469c3.614 0 6.822 1.31 8.448 3.208a9.017 9.017 0 0 0-3.298-4.247c-1.49-1.084-3.298-1.626-5.15-1.626a8.823 8.823 0 0 0-5.15 1.626 9.017 9.017 0 0 0-3.298 4.247c1.671-1.943 4.834-3.208 8.448-3.208z"/><path fill="#6A9FB5" d="M10.924 25.097c0 .362-.045.678-.225.994-.181.271-.452.497-.768.633-.317.135-.633.18-.994.135a1.818 1.818 0 0 1-.904-.406 1.406 1.406 0 0 1-.497-.859c-.09-.316-.045-.677.045-.994.136-.316.317-.587.588-.813.27-.18.587-.316.948-.316.226 0 .452 0 .678.09.226.09.407.181.587.362.181.18.317.316.407.542.045.18.09.407.135.632z"/><path fill="#343944" d="M7.852 8.427c-.18 0-.406-.045-.542-.135a.718.718 0 0 1-.361-.452c-.09-.18-.136-.361-.09-.542.045-.18.135-.362.27-.497.136-.136.317-.226.498-.271.18-.09.361-.09.542 0 .18.09.361.18.451.361.136.136.181.362.181.542 0 .271-.09.543-.27.723a1.035 1.035 0 0 1-.679.271z"/></g></svg>