<svg xmlns="http://www.w3.org/2000/svg" width="32" height="32"><path fill="#9DBD58" fill-rule="evenodd" d="M23 9.75h-.5v-.48c0-.026-.012-.05-.016-.075.331-.333.516-.765.516-1.226 0-.477-.193-.924-.545-1.26L21.174 5.48c-.604-.58-1.596-.657-2.308-.238A1.996 1.996 0 0 0 17 4h-2c-.854 0-1.58.518-1.866 1.242-.712-.419-1.704-.341-2.308.238L9.545 6.708A1.732 1.732 0 0 0 9 7.968c0 .462.185.894.516 1.227-.004.026-.016.049-.016.076v.479H9c-.552 0-1 .43-1 .958v14.375C8 26.14 8.897 27 10 27s2-.86 2-1.917V10.708c0-.528-.448-.958-1-.958h-.5v-.034c.117.022.237.034.36.034.496 0 .963-.185 1.314-.522L13.455 8c.163-.156.288-.337.38-.533.328.228.73.366 1.165.366h2c.436 0 .837-.138 1.166-.366.091.196.216.377.379.533l1.281 1.228c.35.337.818.522 1.315.522.122 0 .242-.012.36-.034v.034H21c-.553 0-1 .43-1 .958v14.375C20 26.14 20.896 27 22 27c1.103 0 2-.86 2-1.917V10.708c0-.528-.448-.958-1-.958zm-12 .958v1.917H9v-1.917h2zm1.748-3.386l-1.281 1.229a.908.908 0 0 1-1.215 0A.803.803 0 0 1 10 7.969c0-.22.09-.427.252-.583l1.281-1.228a.873.873 0 0 1 .608-.241c.179 0 .342.066.485.162a.463.463 0 0 0-.073.531c.083.16.248.249.42.258a.798.798 0 0 1-.225.454zm5.028-.977l.08.038a.995.995 0 0 1-.856.492h-2a.995.995 0 0 1-.855-.492l.079-.038a.47.47 0 0 0-.086-.885.995.995 0 0 1 .862-.502h2c.376 0 .691.208.862.502a.492.492 0 0 0-.31.242.47.47 0 0 0 .224.643zm2.757 2.206l-1.281-1.229a.798.798 0 0 1-.226-.454.498.498 0 0 0 .421-.258.463.463 0 0 0-.073-.53.866.866 0 0 1 .485-.163c.23 0 .446.085.608.24l1.281 1.229a.803.803 0 0 1 .252.583c0 .219-.09.426-.252.582a.908.908 0 0 1-1.215 0zM23 12.625h-2v-1.917h2v1.917z"/></svg>